<svg xmlns="http://www.w3.org/2000/svg" xmlns:xlink="http://www.w3.org/1999/xlink" width="500" zoomAndPan="magnify" viewBox="0 0 375 374.999991" height="500" preserveAspectRatio="xMidYMid meet" version="1.0"><defs><g/><clipPath id="2c3762b2fa"><path d="M 61 152.007812 L 129.910156 152.007812 L 129.910156 170 L 61 170 Z M 61 152.007812 " clip-rule="nonzero"/></clipPath><clipPath id="29a08c28c3"><path d="M 80 172 L 129.910156 172 L 129.910156 189 L 80 189 Z M 80 172 " clip-rule="nonzero"/></clipPath><clipPath id="91a4cd63cd"><path d="M 46.660156 184 L 129.910156 184 L 129.910156 203 L 46.660156 203 Z M 46.660156 184 " clip-rule="nonzero"/></clipPath><clipPath id="91d8b66077"><path d="M 65 205 L 129.910156 205 L 129.910156 223.257812 L 65 223.257812 Z M 65 205 " clip-rule="nonzero"/></clipPath></defs><g clip-path="url(#2c3762b2fa)"><path fill="#00fff0" d="M 69.378906 167.628906 C 73.292969 167.628906 76.515625 164.707031 77.039062 160.910156 L 90.265625 160.910156 L 95.925781 169.113281 C 96.140625 169.417969 96.445312 169.546875 96.792969 169.546875 L 128.867188 169.546875 C 129.433594 169.546875 129.910156 169.070312 129.910156 168.5 C 129.910156 167.933594 129.433594 167.453125 128.867188 167.453125 L 97.316406 167.453125 L 91.660156 159.253906 C 91.441406 158.945312 91.136719 158.816406 90.789062 158.816406 L 76.992188 158.816406 C 76.472656 155.019531 73.25 152.097656 69.335938 152.097656 C 65.070312 152.097656 61.589844 155.585938 61.589844 159.863281 C 61.589844 164.136719 65.113281 167.628906 69.378906 167.628906 Z M 69.378906 154.234375 C 72.46875 154.234375 74.992188 156.765625 74.992188 159.863281 C 74.992188 162.960938 72.46875 165.492188 69.378906 165.492188 C 66.289062 165.492188 63.765625 162.960938 63.765625 159.863281 C 63.765625 156.765625 66.246094 154.234375 69.378906 154.234375 Z M 69.378906 154.234375 " fill-opacity="1" fill-rule="nonzero"/></g><g clip-path="url(#29a08c28c3)"><path fill="#00fff0" d="M 128.867188 179.582031 L 95.488281 179.582031 C 94.964844 175.785156 91.746094 172.863281 87.828125 172.863281 C 83.566406 172.863281 80.082031 176.355469 80.082031 180.628906 C 80.082031 184.90625 83.566406 188.394531 87.828125 188.394531 C 91.746094 188.394531 94.964844 185.472656 95.488281 181.675781 L 128.867188 181.675781 C 129.433594 181.675781 129.910156 181.195312 129.910156 180.628906 C 129.910156 180.0625 129.433594 179.582031 128.867188 179.582031 Z M 87.828125 186.300781 C 84.738281 186.300781 82.214844 183.769531 82.214844 180.671875 C 82.214844 177.574219 84.738281 175 87.828125 175 C 90.917969 175 93.445312 177.53125 93.445312 180.628906 C 93.445312 183.769531 90.917969 186.300781 87.828125 186.300781 Z M 87.828125 186.300781 " fill-opacity="1" fill-rule="nonzero"/></g><g clip-path="url(#91a4cd63cd)"><path fill="#00fff0" d="M 128.867188 193.019531 L 99.753906 193.019531 C 99.40625 193.019531 99.058594 193.195312 98.839844 193.5 L 94.75 200.042969 L 76.820312 200.042969 L 72.382812 191.753906 C 72.207031 191.40625 71.859375 191.1875 71.46875 191.1875 L 62.066406 191.1875 C 61.542969 187.390625 58.324219 184.46875 54.40625 184.46875 C 50.144531 184.46875 46.660156 187.960938 46.660156 192.234375 C 46.660156 196.511719 50.144531 200 54.40625 200 C 58.324219 200 61.542969 197.078125 62.066406 193.28125 L 70.8125 193.28125 L 75.253906 201.570312 C 75.425781 201.921875 75.773438 202.136719 76.167969 202.136719 L 95.316406 202.136719 C 95.664062 202.136719 96.011719 201.964844 96.230469 201.660156 L 100.320312 195.113281 L 128.824219 195.113281 C 129.390625 195.113281 129.867188 194.632812 129.867188 194.066406 C 129.910156 193.5 129.433594 193.019531 128.867188 193.019531 Z M 54.40625 197.949219 C 51.316406 197.949219 48.792969 195.417969 48.792969 192.320312 C 48.792969 189.222656 51.316406 186.695312 54.40625 186.695312 C 57.496094 186.695312 60.023438 189.222656 60.023438 192.320312 C 60.066406 195.417969 57.542969 197.949219 54.40625 197.949219 Z M 54.40625 197.949219 " fill-opacity="1" fill-rule="nonzero"/></g><g clip-path="url(#91d8b66077)"><path fill="#00fff0" d="M 128.867188 205.367188 L 112.070312 205.367188 C 111.675781 205.367188 111.328125 205.585938 111.15625 205.890625 L 106.195312 214.355469 L 80.867188 214.355469 C 80.34375 210.558594 77.125 207.636719 73.207031 207.636719 C 68.941406 207.636719 65.460938 211.125 65.460938 215.402344 C 65.460938 219.675781 68.941406 223.167969 73.207031 223.167969 C 77.125 223.167969 80.34375 220.242188 80.867188 216.449219 L 106.804688 216.449219 C 107.195312 216.449219 107.542969 216.230469 107.71875 215.925781 L 112.679688 207.460938 L 128.867188 207.460938 C 129.433594 207.460938 129.910156 206.980469 129.910156 206.414062 C 129.910156 205.847656 129.433594 205.367188 128.867188 205.367188 Z M 73.207031 221.074219 C 70.117188 221.074219 67.59375 218.542969 67.59375 215.445312 C 67.59375 212.347656 70.117188 209.816406 73.207031 209.816406 C 76.296875 209.816406 78.820312 212.347656 78.820312 215.445312 C 78.863281 218.542969 76.339844 221.074219 73.207031 221.074219 Z M 73.207031 221.074219 " fill-opacity="1" fill-rule="nonzero"/></g><g fill="#00ff29" fill-opacity="1"><g transform="translate(137.811324, 193.283894)"><g><path d="M 17.953125 -21.691406 L 2.816406 -21.691406 C 2.605469 -21.691406 2.105469 -21.585938 2.105469 -20.742188 L 2.105469 -18.71875 C 2.105469 -17.902344 2.605469 -17.796875 2.816406 -17.796875 L 17.953125 -17.796875 C 18.164062 -17.796875 18.691406 -17.875 18.691406 -18.691406 L 18.691406 -20.769531 C 18.691406 -21.613281 18.164062 -21.691406 17.953125 -21.691406 Z M 17.820312 -12.871094 L 4.238281 -12.847656 C 3.476562 -12.792969 2.816406 -12.371094 2.421875 -11.742188 C 2.316406 -11.53125 2.210938 -11.292969 2.160156 -11.054688 L 2.105469 -0.894531 C 2.105469 -0.078125 2.632812 0.0273438 2.84375 0.0273438 L 5.265625 0.0273438 C 5.476562 0.0273438 6.003906 -0.078125 6.003906 -0.894531 C 6.003906 -0.894531 6.027344 -8.976562 6.054688 -8.976562 L 17.820312 -8.976562 C 18.03125 -8.976562 18.558594 -9.054688 18.558594 -9.871094 L 18.558594 -11.953125 C 18.558594 -12.769531 18.03125 -12.871094 17.820312 -12.871094 Z M 17.820312 -12.871094 "/></g></g></g><g fill="#00ff29" fill-opacity="1"><g transform="translate(159.920404, 193.283894)"><g><path d="M 16.214844 -19.242188 C 16.164062 -19.375 16.109375 -19.53125 16.058594 -19.636719 C 15.636719 -21.007812 14.375 -21.980469 12.925781 -21.980469 C 12.265625 -21.980469 11.636719 -21.796875 11.109375 -21.429688 C 10.953125 -21.347656 10.820312 -21.246094 10.714844 -21.164062 C 10.320312 -20.824219 9.925781 -20.191406 9.554688 -19.242188 L 2.210938 -1 C 2.132812 -0.761719 2.105469 -0.527344 2.160156 -0.367188 C 2.183594 -0.210938 2.316406 0.0273438 2.738281 0.0273438 L 5.632812 0.0273438 C 5.976562 0.0273438 6.238281 -0.183594 6.371094 -0.527344 L 7.871094 -4.289062 L 13.636719 -4.289062 C 13.925781 -4.289062 14.1875 -4.421875 14.320312 -4.660156 C 14.480469 -4.871094 14.503906 -5.160156 14.425781 -5.421875 L 13.476562 -7.765625 C 13.347656 -8.082031 13.058594 -8.292969 12.714844 -8.292969 L 9.449219 -8.292969 L 12.820312 -16.820312 C 12.847656 -16.875 12.871094 -16.902344 12.871094 -16.902344 L 12.976562 -16.902344 C 12.976562 -16.902344 12.976562 -16.902344 13.003906 -16.847656 L 19.53125 -0.554688 C 19.664062 -0.183594 19.929688 0.0273438 20.296875 0.0273438 L 23.113281 0.0273438 C 23.535156 0.0273438 23.640625 -0.238281 23.691406 -0.367188 C 23.746094 -0.527344 23.71875 -0.761719 23.613281 -1 Z M 16.214844 -19.242188 "/></g></g></g><g fill="#00ff29" fill-opacity="1"><g transform="translate(187.082989, 193.283894)"><g><path d="M 14.820312 -12.953125 L 6.921875 -12.953125 C 6.527344 -12.953125 6.027344 -13.109375 6.027344 -14.398438 L 6.027344 -16.347656 C 6.027344 -16.820312 6.105469 -17.191406 6.238281 -17.453125 C 6.34375 -17.613281 6.503906 -17.796875 6.949219 -17.796875 L 17.664062 -17.796875 C 17.875 -17.796875 18.402344 -17.875 18.402344 -18.691406 L 18.402344 -20.796875 C 18.402344 -21.613281 17.875 -21.691406 17.664062 -21.691406 L 6.316406 -21.691406 C 4.871094 -21.691406 3.816406 -21.21875 3.132812 -20.242188 C 2.449219 -19.296875 2.105469 -18.03125 2.105469 -16.503906 L 2.105469 -14.503906 C 2.105469 -12.6875 2.472656 -11.214844 3.132812 -10.292969 C 3.949219 -9.214844 5.160156 -9.054688 6.265625 -9.054688 L 14.164062 -9.054688 C 14.558594 -9.054688 15.085938 -8.898438 15.085938 -7.609375 L 15.085938 -5.34375 C 15.085938 -4.871094 15.003906 -4.5 14.847656 -4.238281 C 14.742188 -4.082031 14.585938 -3.894531 14.136719 -3.894531 L 2.894531 -3.894531 C 2.660156 -3.894531 2.132812 -3.816406 2.132812 -3 L 2.132812 -0.894531 C 2.132812 -0.078125 2.660156 0 2.894531 0 L 14.769531 0 C 16.214844 0 17.296875 -0.5 17.980469 -1.472656 C 18.636719 -2.421875 18.980469 -3.660156 18.980469 -5.1875 L 18.980469 -7.503906 C 18.980469 -9.214844 18.636719 -10.554688 17.953125 -11.503906 C 17.242188 -12.453125 16.191406 -12.953125 14.820312 -12.953125 Z M 14.820312 -12.953125 "/></g></g></g><g fill="#00ff29" fill-opacity="1"><g transform="translate(209.481593, 193.283894)"><g><path d="M 20.296875 -21.691406 L 2.871094 -21.691406 C 2.632812 -21.691406 2.105469 -21.613281 2.105469 -20.796875 L 2.105469 -18.742188 C 2.105469 -17.875 2.632812 -17.796875 2.871094 -17.796875 L 9.636719 -17.796875 L 9.636719 -0.894531 C 9.636719 -0.078125 10.160156 0 10.371094 0 L 12.792969 0 C 13.03125 0 13.53125 -0.078125 13.53125 -0.894531 L 13.53125 -17.796875 L 20.296875 -17.796875 C 20.535156 -17.796875 21.058594 -17.875 21.058594 -18.742188 L 21.058594 -20.796875 C 21.058594 -21.613281 20.535156 -21.691406 20.296875 -21.691406 Z M 20.296875 -21.691406 "/></g></g></g><g fill="#00ff29" fill-opacity="1"><g transform="translate(233.959507, 193.283894)"><g><path d="M 20.296875 -21.691406 L 2.871094 -21.691406 C 2.632812 -21.691406 2.105469 -21.613281 2.105469 -20.796875 L 2.105469 -18.742188 C 2.105469 -17.875 2.632812 -17.796875 2.871094 -17.796875 L 9.636719 -17.796875 L 9.636719 -0.894531 C 9.636719 -0.078125 10.160156 0 10.371094 0 L 12.792969 0 C 13.03125 0 13.53125 -0.078125 13.53125 -0.894531 L 13.53125 -17.796875 L 20.296875 -17.796875 C 20.535156 -17.796875 21.058594 -17.875 21.058594 -18.742188 L 21.058594 -20.796875 C 21.058594 -21.613281 20.535156 -21.691406 20.296875 -21.691406 Z M 20.296875 -21.691406 "/></g></g></g><g fill="#00ff29" fill-opacity="1"><g transform="translate(258.437422, 193.283894)"><g><path d="M 20.058594 -15.398438 C 20.058594 -15.375 20.058594 -15.347656 20.058594 -15.320312 C 20.058594 -15.292969 20.058594 -15.269531 20.058594 -15.242188 Z M 20.558594 -1.132812 L 15.953125 -9.03125 C 17.242188 -9.1875 18.242188 -9.742188 18.902344 -10.636719 C 19.636719 -11.714844 20.035156 -13.269531 20.058594 -15.320312 C 20.035156 -17.375 19.636719 -18.925781 18.902344 -20.007812 C 18.113281 -21.140625 16.796875 -21.691406 15.003906 -21.691406 L 2.871094 -21.691406 C 2.632812 -21.691406 2.105469 -21.613281 2.105469 -20.769531 L 2.105469 -18.691406 C 2.105469 -17.875 2.632812 -17.796875 2.871094 -17.796875 L 14.320312 -17.796875 C 15.003906 -17.796875 15.453125 -17.613281 15.714844 -17.214844 C 16.003906 -16.820312 16.136719 -16.191406 16.136719 -15.320312 C 16.136719 -14.453125 16.003906 -13.820312 15.714844 -13.425781 C 15.453125 -13.03125 15.003906 -12.847656 14.320312 -12.847656 L 2.871094 -12.847656 C 2.632812 -12.847656 2.105469 -12.769531 2.105469 -11.953125 L 2.105469 -0.894531 C 2.105469 -0.078125 2.632812 0.0273438 2.871094 0.0273438 L 5.265625 0.0273438 C 5.5 0.0273438 6.003906 -0.078125 6.003906 -0.894531 L 6.003906 -8.949219 L 11.558594 -8.949219 L 16.320312 -0.5 C 16.425781 -0.34375 16.503906 -0.210938 16.609375 -0.132812 C 16.742188 -0.0273438 16.925781 0.0273438 17.164062 0.0273438 L 20.058594 0.0273438 C 20.375 0.0273438 20.613281 -0.183594 20.664062 -0.5 C 20.691406 -0.761719 20.664062 -0.972656 20.558594 -1.132812 Z M 20.558594 -1.132812 "/></g></g></g><g fill="#00ff29" fill-opacity="1"><g transform="translate(282.546849, 193.283894)"><g><path d="M 16.214844 -19.242188 C 16.164062 -19.375 16.109375 -19.53125 16.058594 -19.636719 C 15.636719 -21.007812 14.375 -21.980469 12.925781 -21.980469 C 12.265625 -21.980469 11.636719 -21.796875 11.109375 -21.429688 C 10.953125 -21.347656 10.820312 -21.246094 10.714844 -21.164062 C 10.320312 -20.824219 9.925781 -20.191406 9.554688 -19.242188 L 2.210938 -1 C 2.132812 -0.761719 2.105469 -0.527344 2.160156 -0.367188 C 2.183594 -0.210938 2.316406 0.0273438 2.738281 0.0273438 L 5.632812 0.0273438 C 5.976562 0.0273438 6.238281 -0.183594 6.371094 -0.527344 L 7.871094 -4.289062 L 13.636719 -4.289062 C 13.925781 -4.289062 14.1875 -4.421875 14.320312 -4.660156 C 14.480469 -4.871094 14.503906 -5.160156 14.425781 -5.421875 L 13.476562 -7.765625 C 13.347656 -8.082031 13.058594 -8.292969 12.714844 -8.292969 L 9.449219 -8.292969 L 12.820312 -16.820312 C 12.847656 -16.875 12.871094 -16.902344 12.871094 -16.902344 L 12.976562 -16.902344 C 12.976562 -16.902344 12.976562 -16.902344 13.003906 -16.847656 L 19.53125 -0.554688 C 19.664062 -0.183594 19.929688 0.0273438 20.296875 0.0273438 L 23.113281 0.0273438 C 23.535156 0.0273438 23.640625 -0.238281 23.691406 -0.367188 C 23.746094 -0.527344 23.71875 -0.761719 23.613281 -1 Z M 16.214844 -19.242188 "/></g></g></g><g fill="#00ff29" fill-opacity="1"><g transform="translate(309.709434, 193.283894)"><g><path d="M 18.191406 -21.691406 L 8.609375 -21.691406 C 7.449219 -21.691406 6.449219 -21.535156 5.632812 -21.246094 C 4.792969 -20.929688 4.105469 -20.429688 3.605469 -19.769531 C 3.078125 -19.113281 2.683594 -18.242188 2.449219 -17.191406 C 2.210938 -16.164062 2.105469 -14.898438 2.105469 -13.453125 L 2.105469 -8.238281 C 2.105469 -6.765625 2.210938 -5.5 2.449219 -4.449219 C 2.683594 -3.421875 3.078125 -2.554688 3.605469 -1.867188 C 4.132812 -1.210938 4.816406 -0.710938 5.632812 -0.421875 C 6.449219 -0.132812 7.449219 0.0273438 8.609375 0.0273438 L 18.191406 0.0273438 C 18.402344 0.0273438 18.925781 -0.078125 18.925781 -0.894531 L 18.925781 -2.976562 C 18.925781 -3.789062 18.402344 -3.894531 18.191406 -3.894531 L 8.738281 -3.894531 C 8.1875 -3.894531 7.714844 -3.949219 7.371094 -4.082031 C 7.027344 -4.1875 6.792969 -4.371094 6.582031 -4.660156 C 6.371094 -4.921875 6.238281 -5.316406 6.132812 -5.816406 C 6.054688 -6.34375 6.003906 -7.003906 6.003906 -7.792969 L 6.003906 -13.925781 C 6.003906 -14.714844 6.054688 -15.375 6.132812 -15.875 C 6.238281 -16.375 6.371094 -16.742188 6.582031 -17.03125 C 6.792969 -17.320312 7.027344 -17.507812 7.371094 -17.613281 C 7.714844 -17.742188 8.1875 -17.796875 8.738281 -17.796875 L 18.191406 -17.796875 C 18.402344 -17.796875 18.925781 -17.902344 18.925781 -18.742188 L 18.925781 -20.769531 C 18.925781 -21.585938 18.402344 -21.691406 18.191406 -21.691406 Z M 18.191406 -21.691406 "/></g></g></g><g fill="#00ff29" fill-opacity="1"><g transform="translate(332.055407, 193.283894)"><g><path d="M 14.714844 -9.03125 C 14.1875 -9.898438 13.664062 -10.609375 13.136719 -11.109375 C 13.292969 -11.320312 13.453125 -11.53125 13.636719 -11.792969 C 13.847656 -12.136719 14.082031 -12.53125 14.347656 -12.976562 L 18.691406 -20.613281 C 18.769531 -20.796875 18.796875 -21.007812 18.769531 -21.246094 C 18.691406 -21.535156 18.480469 -21.691406 18.164062 -21.691406 L 15.558594 -21.691406 C 15.269531 -21.691406 15.085938 -21.640625 14.980469 -21.535156 C 14.875 -21.453125 14.769531 -21.347656 14.6875 -21.164062 L 10.714844 -14.136719 C 10.554688 -13.875 10.398438 -13.664062 10.265625 -13.476562 C 10.136719 -13.320312 9.976562 -13.1875 9.84375 -13.109375 C 9.6875 -13.03125 9.503906 -12.976562 9.292969 -12.953125 C 9.082031 -12.925781 8.792969 -12.898438 8.449219 -12.898438 L 6.027344 -12.898438 L 6.027344 -20.769531 C 6.027344 -21.613281 5.5 -21.691406 5.292969 -21.691406 L 2.871094 -21.691406 C 2.660156 -21.691406 2.105469 -21.613281 2.105469 -20.769531 L 2.105469 -0.894531 C 2.105469 -0.078125 2.660156 0.0273438 2.871094 0.0273438 L 5.292969 0.0273438 C 5.5 0.0273438 6.027344 -0.078125 6.027344 -0.894531 L 6.027344 -9.003906 L 8.6875 -9.003906 C 9.320312 -9.003906 9.792969 -8.925781 10.109375 -8.738281 C 10.398438 -8.582031 10.6875 -8.238281 10.976562 -7.714844 L 15.085938 -0.5 C 15.164062 -0.34375 15.269531 -0.210938 15.375 -0.132812 C 15.480469 -0.0273438 15.664062 0.0273438 15.925781 0.0273438 L 18.769531 0.0273438 C 19.136719 0.0273438 19.347656 -0.183594 19.375 -0.527344 C 19.402344 -0.789062 19.375 -1 19.269531 -1.132812 Z M 14.714844 -9.03125 "/></g></g></g><g fill="#ebff00" fill-opacity="1"><g transform="translate(137.811324, 212.398637)"><g><path d="M 11.085938 -11.847656 L 1.566406 -11.847656 C 1.4375 -11.847656 1.148438 -11.804688 1.148438 -11.359375 L 1.148438 -10.238281 C 1.148438 -9.761719 1.4375 -9.71875 1.566406 -9.71875 L 5.261719 -9.71875 L 5.261719 -0.488281 C 5.261719 -0.0429688 5.550781 0 5.664062 0 L 6.988281 0 C 7.117188 0 7.390625 -0.0429688 7.390625 -0.488281 L 7.390625 -9.71875 L 11.085938 -9.71875 C 11.214844 -9.71875 11.503906 -9.761719 11.503906 -10.238281 L 11.503906 -11.359375 C 11.503906 -11.804688 11.214844 -11.847656 11.085938 -11.847656 Z M 11.085938 -11.847656 "/></g></g></g><g fill="#ebff00" fill-opacity="1"><g transform="translate(151.172781, 212.398637)"><g><path d="M 9.792969 -2.574219 L 4.730469 -2.574219 C 4.429688 -2.574219 4.183594 -2.617188 3.984375 -2.675781 C 3.796875 -2.746094 3.667969 -2.847656 3.550781 -2.992188 C 3.4375 -3.148438 3.351562 -3.363281 3.308594 -3.636719 C 3.292969 -3.710938 3.292969 -3.808594 3.277344 -3.882812 C 3.277344 -3.882812 3.292969 -4.917969 3.308594 -4.917969 L 9.734375 -4.917969 C 9.847656 -4.917969 10.136719 -4.976562 10.136719 -5.421875 L 10.136719 -6.554688 C 10.136719 -7 9.847656 -7.046875 9.734375 -7.046875 L 2.316406 -7.03125 C 1.898438 -7 1.539062 -6.785156 1.335938 -6.425781 C 1.265625 -6.3125 1.207031 -6.195312 1.179688 -6.066406 L 1.148438 -4.253906 L 1.148438 -4.183594 C 1.164062 -3.507812 1.238281 -2.933594 1.335938 -2.457031 C 1.464844 -1.882812 1.683594 -1.410156 1.957031 -1.050781 C 2.242188 -0.675781 2.617188 -0.417969 3.078125 -0.257812 C 3.523438 -0.0859375 4.054688 -0.015625 4.6875 -0.015625 L 9.792969 -0.015625 C 9.921875 -0.015625 10.207031 -0.0585938 10.207031 -0.503906 L 10.207031 -2.085938 C 10.207031 -2.53125 9.921875 -2.574219 9.792969 -2.574219 Z M 9.804688 -11.875 L 1.539062 -11.875 C 1.421875 -11.875 1.148438 -11.816406 1.148438 -11.359375 L 1.148438 -10.238281 C 1.148438 -9.792969 1.421875 -9.746094 1.539062 -9.746094 L 9.804688 -9.734375 C 9.921875 -9.734375 10.207031 -9.792969 10.207031 -10.238281 L 10.207031 -11.371094 C 10.207031 -11.816406 9.921875 -11.875 9.804688 -11.875 Z M 9.804688 -11.875 "/></g></g></g><g fill="#ebff00" fill-opacity="1"><g transform="translate(163.241193, 212.398637)"><g><path d="M 9.933594 -11.847656 L 4.703125 -11.847656 C 4.070312 -11.847656 3.523438 -11.761719 3.078125 -11.601562 C 2.617188 -11.429688 2.242188 -11.15625 1.96875 -10.796875 C 1.683594 -10.4375 1.464844 -9.964844 1.335938 -9.386719 C 1.207031 -8.828125 1.148438 -8.136719 1.148438 -7.347656 L 1.148438 -4.5 C 1.148438 -3.695312 1.207031 -3.003906 1.335938 -2.429688 C 1.464844 -1.867188 1.683594 -1.394531 1.96875 -1.019531 C 2.257812 -0.660156 2.632812 -0.386719 3.078125 -0.230469 C 3.523438 -0.0703125 4.070312 0.015625 4.703125 0.015625 L 9.933594 0.015625 C 10.050781 0.015625 10.335938 -0.0429688 10.335938 -0.488281 L 10.335938 -1.625 C 10.335938 -2.070312 10.050781 -2.128906 9.933594 -2.128906 L 4.773438 -2.128906 C 4.472656 -2.128906 4.210938 -2.15625 4.027344 -2.226562 C 3.839844 -2.285156 3.710938 -2.386719 3.59375 -2.542969 C 3.480469 -2.6875 3.40625 -2.902344 3.351562 -3.175781 C 3.308594 -3.464844 3.277344 -3.824219 3.277344 -4.253906 L 3.277344 -7.605469 C 3.277344 -8.035156 3.308594 -8.394531 3.351562 -8.667969 C 3.40625 -8.941406 3.480469 -9.144531 3.59375 -9.300781 C 3.710938 -9.460938 3.839844 -9.5625 4.027344 -9.617188 C 4.210938 -9.691406 4.472656 -9.71875 4.773438 -9.71875 L 9.933594 -9.71875 C 10.050781 -9.71875 10.335938 -9.777344 10.335938 -10.238281 L 10.335938 -11.34375 C 10.335938 -11.789062 10.050781 -11.847656 9.933594 -11.847656 Z M 9.933594 -11.847656 "/></g></g></g><g fill="#ebff00" fill-opacity="1"><g transform="translate(175.438912, 212.398637)"><g><path d="M 10.4375 -11.847656 L 9.117188 -11.847656 C 9 -11.847656 8.726562 -11.789062 8.726562 -11.34375 L 8.726562 -7.046875 L 3.277344 -7.046875 L 3.277344 -11.34375 C 3.277344 -11.789062 3.003906 -11.847656 2.875 -11.847656 L 1.566406 -11.847656 C 1.4375 -11.847656 1.148438 -11.789062 1.148438 -11.34375 L 1.148438 -0.488281 C 1.148438 -0.0429688 1.4375 0.015625 1.566406 0.015625 L 2.875 0.015625 C 3.003906 0.015625 3.277344 -0.0429688 3.277344 -0.488281 L 3.277344 -4.917969 L 8.726562 -4.917969 L 8.726562 -0.488281 C 8.726562 -0.0429688 9 0.015625 9.117188 0.015625 L 10.4375 0.015625 C 10.566406 0.015625 10.855469 -0.0429688 10.855469 -0.488281 L 10.855469 -11.34375 C 10.855469 -11.789062 10.566406 -11.847656 10.4375 -11.847656 Z M 10.4375 -11.847656 "/></g></g></g><g fill="#ebff00" fill-opacity="1"><g transform="translate(188.153846, 212.398637)"><g><path d="M 11.328125 -11.847656 L 10.050781 -11.847656 C 9.921875 -11.847656 9.648438 -11.804688 9.648438 -11.34375 L 9.648438 -2.703125 C 9.648438 -2.6875 9.648438 -2.6875 9.648438 -2.675781 L 9.574219 -2.675781 C 9.5625 -2.675781 9.546875 -2.675781 9.53125 -2.71875 L 4.988281 -10.796875 C 4.875 -11.011719 4.773438 -11.1875 4.671875 -11.316406 C 4.570312 -11.457031 4.472656 -11.574219 4.371094 -11.644531 C 4.253906 -11.730469 4.125 -11.789062 3.96875 -11.816406 C 3.824219 -11.832031 3.652344 -11.847656 3.464844 -11.847656 L 2.386719 -11.847656 C 1.96875 -11.847656 1.652344 -11.703125 1.453125 -11.445312 C 1.25 -11.171875 1.148438 -10.695312 1.148438 -9.992188 L 1.148438 -0.488281 C 1.148438 -0.0429688 1.4375 0.015625 1.566406 0.015625 L 2.847656 0.015625 C 2.976562 0.015625 3.25 -0.0429688 3.25 -0.488281 L 3.25 -9.128906 C 3.25 -9.144531 3.25 -9.160156 3.25 -9.160156 L 3.320312 -9.160156 C 3.320312 -9.160156 3.335938 -9.160156 3.363281 -9.117188 L 7.921875 -1.035156 C 8.035156 -0.804688 8.152344 -0.632812 8.253906 -0.503906 C 8.351562 -0.359375 8.453125 -0.257812 8.570312 -0.1875 C 8.683594 -0.101562 8.8125 -0.0585938 8.957031 -0.0273438 C 9.085938 0 9.246094 0.015625 9.445312 0.015625 L 10.496094 0.015625 C 10.914062 0.015625 11.230469 -0.128906 11.429688 -0.402344 C 11.632812 -0.660156 11.730469 -1.136719 11.730469 -1.839844 L 11.730469 -11.34375 C 11.730469 -11.804688 11.445312 -11.847656 11.328125 -11.847656 Z M 11.328125 -11.847656 "/></g></g></g><g fill="#ebff00" fill-opacity="1"><g transform="translate(201.74518, 212.398637)"><g><path d="M 10.941406 -10.796875 C 10.652344 -11.15625 10.28125 -11.429688 9.820312 -11.601562 C 9.375 -11.761719 8.828125 -11.847656 8.195312 -11.847656 L 4.6875 -11.847656 C 4.054688 -11.847656 3.523438 -11.761719 3.078125 -11.601562 C 2.617188 -11.429688 2.242188 -11.15625 1.957031 -10.796875 C 1.683594 -10.4375 1.464844 -9.964844 1.335938 -9.386719 C 1.207031 -8.828125 1.148438 -8.152344 1.148438 -7.347656 L 1.148438 -4.5 C 1.148438 -3.695312 1.207031 -3.003906 1.335938 -2.445312 C 1.464844 -1.867188 1.683594 -1.394531 1.957031 -1.035156 C 2.242188 -0.660156 2.617188 -0.386719 3.078125 -0.230469 C 3.507812 -0.0703125 4.054688 0.015625 4.6875 0.015625 L 8.195312 0.015625 C 8.828125 0.015625 9.375 -0.0703125 9.820312 -0.230469 C 10.28125 -0.386719 10.652344 -0.660156 10.941406 -1.019531 C 11.230469 -1.394531 11.429688 -1.867188 11.558594 -2.445312 C 11.675781 -3.003906 11.746094 -3.695312 11.746094 -4.5 L 11.746094 -7.347656 C 11.746094 -8.136719 11.675781 -8.828125 11.558594 -9.386719 C 11.429688 -9.964844 11.230469 -10.4375 10.941406 -10.796875 Z M 9.605469 -7.589844 L 9.605469 -4.242188 C 9.605469 -3.824219 9.589844 -3.464844 9.53125 -3.175781 C 9.488281 -2.917969 9.402344 -2.6875 9.289062 -2.542969 C 9.1875 -2.386719 9.042969 -2.285156 8.855469 -2.226562 C 8.667969 -2.15625 8.425781 -2.128906 8.125 -2.128906 L 4.757812 -2.128906 C 4.457031 -2.128906 4.210938 -2.15625 4.027344 -2.226562 C 3.839844 -2.285156 3.695312 -2.386719 3.59375 -2.542969 C 3.480469 -2.6875 3.40625 -2.917969 3.351562 -3.175781 C 3.308594 -3.464844 3.277344 -3.824219 3.277344 -4.242188 L 3.277344 -7.589844 C 3.277344 -8.007812 3.308594 -8.367188 3.351562 -8.65625 C 3.40625 -8.929688 3.480469 -9.144531 3.59375 -9.300781 C 3.695312 -9.445312 3.839844 -9.546875 4.027344 -9.617188 C 4.210938 -9.675781 4.457031 -9.71875 4.757812 -9.71875 L 8.125 -9.71875 C 8.425781 -9.71875 8.667969 -9.675781 8.855469 -9.617188 C 9.042969 -9.546875 9.1875 -9.445312 9.289062 -9.300781 C 9.402344 -9.144531 9.488281 -8.929688 9.53125 -8.65625 C 9.589844 -8.367188 9.605469 -8.007812 9.605469 -7.589844 Z M 9.605469 -7.589844 "/></g></g></g><g fill="#ebff00" fill-opacity="1"><g transform="translate(215.350888, 212.398637)"><g><path d="M 9.445312 -2.128906 L 4.773438 -2.128906 C 4.472656 -2.128906 4.226562 -2.15625 4.027344 -2.226562 C 3.851562 -2.285156 3.710938 -2.386719 3.609375 -2.542969 C 3.492188 -2.703125 3.40625 -2.917969 3.363281 -3.175781 C 3.308594 -3.464844 3.292969 -3.824219 3.292969 -4.253906 L 3.292969 -11.34375 C 3.292969 -11.804688 3.003906 -11.847656 2.890625 -11.847656 L 1.566406 -11.847656 C 1.4375 -11.847656 1.148438 -11.804688 1.148438 -11.34375 L 1.148438 -4.5 C 1.148438 -3.695312 1.222656 -3.003906 1.351562 -2.445312 C 1.480469 -1.867188 1.683594 -1.394531 1.96875 -1.035156 C 2.257812 -0.660156 2.632812 -0.386719 3.089844 -0.230469 C 3.523438 -0.0703125 4.070312 0.015625 4.703125 0.015625 L 9.445312 0.015625 C 9.574219 0.015625 9.847656 -0.0429688 9.847656 -0.488281 L 9.847656 -1.625 C 9.847656 -2.070312 9.574219 -2.128906 9.445312 -2.128906 Z M 9.445312 -2.128906 "/></g></g></g><g fill="#ebff00" fill-opacity="1"><g transform="translate(227.060127, 212.398637)"><g><path d="M 10.941406 -10.796875 C 10.652344 -11.15625 10.28125 -11.429688 9.820312 -11.601562 C 9.375 -11.761719 8.828125 -11.847656 8.195312 -11.847656 L 4.6875 -11.847656 C 4.054688 -11.847656 3.523438 -11.761719 3.078125 -11.601562 C 2.617188 -11.429688 2.242188 -11.15625 1.957031 -10.796875 C 1.683594 -10.4375 1.464844 -9.964844 1.335938 -9.386719 C 1.207031 -8.828125 1.148438 -8.152344 1.148438 -7.347656 L 1.148438 -4.5 C 1.148438 -3.695312 1.207031 -3.003906 1.335938 -2.445312 C 1.464844 -1.867188 1.683594 -1.394531 1.957031 -1.035156 C 2.242188 -0.660156 2.617188 -0.386719 3.078125 -0.230469 C 3.507812 -0.0703125 4.054688 0.015625 4.6875 0.015625 L 8.195312 0.015625 C 8.828125 0.015625 9.375 -0.0703125 9.820312 -0.230469 C 10.28125 -0.386719 10.652344 -0.660156 10.941406 -1.019531 C 11.230469 -1.394531 11.429688 -1.867188 11.558594 -2.445312 C 11.675781 -3.003906 11.746094 -3.695312 11.746094 -4.5 L 11.746094 -7.347656 C 11.746094 -8.136719 11.675781 -8.828125 11.558594 -9.386719 C 11.429688 -9.964844 11.230469 -10.4375 10.941406 -10.796875 Z M 9.605469 -7.589844 L 9.605469 -4.242188 C 9.605469 -3.824219 9.589844 -3.464844 9.53125 -3.175781 C 9.488281 -2.917969 9.402344 -2.6875 9.289062 -2.542969 C 9.1875 -2.386719 9.042969 -2.285156 8.855469 -2.226562 C 8.667969 -2.15625 8.425781 -2.128906 8.125 -2.128906 L 4.757812 -2.128906 C 4.457031 -2.128906 4.210938 -2.15625 4.027344 -2.226562 C 3.839844 -2.285156 3.695312 -2.386719 3.59375 -2.542969 C 3.480469 -2.6875 3.40625 -2.917969 3.351562 -3.175781 C 3.308594 -3.464844 3.277344 -3.824219 3.277344 -4.242188 L 3.277344 -7.589844 C 3.277344 -8.007812 3.308594 -8.367188 3.351562 -8.65625 C 3.40625 -8.929688 3.480469 -9.144531 3.59375 -9.300781 C 3.695312 -9.445312 3.839844 -9.546875 4.027344 -9.617188 C 4.210938 -9.675781 4.457031 -9.71875 4.757812 -9.71875 L 8.125 -9.71875 C 8.425781 -9.71875 8.667969 -9.675781 8.855469 -9.617188 C 9.042969 -9.546875 9.1875 -9.445312 9.289062 -9.300781 C 9.402344 -9.144531 9.488281 -8.929688 9.53125 -8.65625 C 9.589844 -8.367188 9.605469 -8.007812 9.605469 -7.589844 Z M 9.605469 -7.589844 "/></g></g></g><g fill="#ebff00" fill-opacity="1"><g transform="translate(240.665835, 212.398637)"><g><path d="M 10.882812 -11.847656 L 4.703125 -11.847656 C 4.070312 -11.847656 3.523438 -11.761719 3.078125 -11.601562 C 2.632812 -11.429688 2.242188 -11.15625 1.96875 -10.796875 C 1.683594 -10.421875 1.464844 -9.964844 1.335938 -9.386719 C 1.207031 -8.828125 1.148438 -8.136719 1.148438 -7.347656 L 1.148438 -4.5 C 1.148438 -3.695312 1.207031 -3.003906 1.335938 -2.429688 C 1.464844 -1.867188 1.683594 -1.394531 1.96875 -1.019531 C 2.257812 -0.660156 2.632812 -0.386719 3.078125 -0.230469 C 3.523438 -0.0703125 4.070312 0.015625 4.703125 0.015625 L 9.617188 0.015625 C 10.152344 0.015625 10.566406 -0.203125 10.855469 -0.617188 C 11.128906 -1.019531 11.273438 -1.695312 11.273438 -2.660156 L 11.273438 -6.511719 C 11.273438 -7.058594 10.957031 -7.144531 10.769531 -7.144531 L 5.679688 -7.144531 C 5.5625 -7.144531 5.277344 -7.089844 5.277344 -6.628906 L 5.277344 -5.535156 C 5.277344 -5.0625 5.5625 -5.019531 5.679688 -5.019531 L 9.257812 -5.019531 C 9.257812 -5.019531 9.273438 -3.003906 9.273438 -3.003906 C 9.273438 -2.558594 9.203125 -2.371094 9.144531 -2.285156 C 9.070312 -2.171875 8.957031 -2.128906 8.800781 -2.128906 L 4.773438 -2.128906 C 4.472656 -2.128906 4.210938 -2.15625 4.027344 -2.226562 C 3.839844 -2.285156 3.710938 -2.386719 3.59375 -2.542969 C 3.492188 -2.6875 3.40625 -2.902344 3.363281 -3.175781 C 3.308594 -3.464844 3.277344 -3.824219 3.277344 -4.253906 L 3.277344 -7.589844 C 3.277344 -8.023438 3.308594 -8.382812 3.363281 -8.667969 C 3.40625 -8.929688 3.492188 -9.144531 3.59375 -9.300781 C 3.710938 -9.445312 3.839844 -9.546875 4.027344 -9.617188 C 4.210938 -9.675781 4.472656 -9.71875 4.773438 -9.71875 L 10.882812 -9.71875 C 11 -9.71875 11.285156 -9.761719 11.285156 -10.222656 L 11.285156 -11.34375 C 11.285156 -11.789062 11 -11.847656 10.882812 -11.847656 Z M 10.882812 -11.847656 "/></g></g></g><g fill="#ebff00" fill-opacity="1"><g transform="translate(253.811789, 212.398637)"><g><path d="M 11.789062 -11.847656 L 10.195312 -11.847656 C 10.0625 -11.847656 9.890625 -11.804688 9.777344 -11.589844 L 6.613281 -5.824219 L 3.480469 -11.574219 C 3.363281 -11.804688 3.191406 -11.847656 3.0625 -11.847656 L 1.421875 -11.847656 C 1.292969 -11.847656 1.191406 -11.773438 1.164062 -11.644531 C 1.136719 -11.546875 1.148438 -11.429688 1.207031 -11.328125 L 5.519531 -3.636719 L 5.519531 -0.488281 C 5.519531 -0.0429688 5.808594 0 5.921875 0 L 7.246094 0 C 7.359375 0 7.648438 -0.0429688 7.648438 -0.488281 L 7.648438 -3.636719 L 12.003906 -11.328125 C 12.0625 -11.429688 12.078125 -11.546875 12.046875 -11.660156 C 12.003906 -11.773438 11.90625 -11.847656 11.789062 -11.847656 Z M 11.789062 -11.847656 "/></g></g></g></svg>